Roboto-Delta-XTUC244.ufo
<glyph name="A" format="2">
  <advance width="512"/>
  <unicode hex="0041"/>
  <anchor x="253" y="0" name="bottom"/>
  <anchor x="406" y="0" name="ogonek"/>
  <anchor x="253" y="1456" name="top"/>
  <anchor x="1" y="1074" name="tonos"/>
  <outline>
    <contour>
      <point x="0" y="0" type="line"/>
      <point x="169" y="1466" type="line"/>
      <point x="341" y="1466" type="line"/>
      <point x="512" y="0" type="line"/>
      <point x="312" y="0" type="line"/>
      <point x="258" y="1100" type="line" smooth="yes"/>
      <point x="256" y="1135"/>
      <point x="258" y="1195"/>
      <point x="258" y="1229" type="qcurve"/>
      <point x="248" y="1229" type="line"/>
      <point x="248" y="1195"/>
      <point x="250" y="1135"/>
      <point x="248" y="1100" type="qcurve" smooth="yes"/>
      <point x="192" y="0" type="line"/>
    </contour>
    <contour>
      <point x="159" y="380" type="line"/>
      <point x="168" y="538" type="line"/>
      <point x="340" y="538" type="line"/>
      <point x="348" y="380" type="line"/>
    </contour>
  </outline>
</glyph>
<glyph name="H" format="2">
  <advance width="754"/>
  <unicode hex="0048"/>
  <anchor x="377" y="0" name="bottom"/>
  <anchor x="376" y="1100" name="center"/>
  <anchor x="377" y="1456" name="top"/>
  <anchor x="490" y="0" name="cy_descender"/>
  <anchor x="6" y="1074" name="tonos"/>
  <outline>
    <contour>
      <point x="170" y="0" type="line"/>
      <point x="170" y="1456" type="line"/>
      <point x="362" y="1456" type="line"/>
      <point x="362" y="0" type="line"/>
    </contour>
    <contour>
      <point x="266" y="672" type="line"/>
      <point x="266" y="830" type="line"/>
      <point x="488" y="830" type="line"/>
      <point x="488" y="672" type="line"/>
    </contour>
    <contour>
      <point x="392" y="0" type="line"/>
      <point x="392" y="1456" type="line"/>
      <point x="584" y="1456" type="line"/>
      <point x="584" y="0" type="line"/>
    </contour>
  </outline>
</glyph>
<glyph name="OE" format="2">
  <advance width="730"/>
  <unicode hex="0152"/>
  <outline>
    <contour>
      <point x="325" y="-21" type="qcurve" smooth="yes"/>
      <point x="211" y="-21"/>
      <point x="115" y="340"/>
      <point x="115" y="682" type="qcurve" smooth="yes"/>
      <point x="115" y="772" type="line" smooth="yes"/>
      <point x="115" y="1105"/>
      <point x="211" y="1477"/>
      <point x="320" y="1477" type="qcurve" smooth="yes"/>
      <point x="353" y="1477"/>
      <point x="399" y="1464"/>
      <point x="417" y="1456" type="qcurve"/>
      <point x="658" y="1456" type="line"/>
      <point x="658" y="1298" type="line"/>
      <point x="531" y="1298" type="line"/>
      <point x="531" y="158" type="line"/>
      <point x="662" y="158" type="line"/>
      <point x="662" y="0" type="line"/>
      <point x="417" y="0" type="line"/>
      <point x="400" y="-7"/>
      <point x="353" y="-21"/>
    </contour>
    <contour>
      <point x="329" y="128" type="qcurve" smooth="yes"/>
      <point x="332" y="128"/>
      <point x="337" y="137"/>
      <point x="339" y="143" type="qcurve"/>
      <point x="339" y="1310" type="line"/>
      <point x="336" y="1317"/>
      <point x="332" y="1325"/>
      <point x="329" y="1325" type="qcurve" smooth="yes"/>
      <point x="315" y="1325"/>
      <point x="309" y="1030"/>
      <point x="309" y="774" type="qcurve" smooth="yes"/>
      <point x="309" y="682" type="line" smooth="yes"/>
      <point x="309" y="418"/>
      <point x="314" y="128"/>
    </contour>
    <contour>
      <point x="441" y="673" type="line"/>
      <point x="441" y="830" type="line"/>
      <point x="618" y="830" type="line"/>
      <point x="618" y="673" type="line"/>
    </contour>
  </outline>
</glyph>
<glyph name="Delta" format="2">
  <advance width="517"/>
  <unicode hex="0394"/>
  <outline>
    <contour>
      <point x="29" y="0" type="line"/>
      <point x="29" y="107" type="line"/>
      <point x="173" y="1466" type="line"/>
      <point x="345" y="1466" type="line"/>
      <point x="489" y="107" type="line"/>
      <point x="489" y="0" type="line"/>
    </contour>
    <contour>
      <point x="242" y="158" type="line"/>
      <point x="272" y="158" type="line"/>
      <point x="265" y="1100" type="line" smooth="yes"/>
      <point x="265" y="1133"/>
      <point x="264" y="1195"/>
      <point x="264" y="1228" type="qcurve"/>
      <point x="254" y="1228" type="line"/>
      <point x="254" y="1195"/>
      <point x="253" y="1133"/>
      <point x="253" y="1100" type="qcurve" smooth="yes"/>
    </contour>
  </outline>
</glyph>
<glyph name="Dje" format="2">
  <advance width="643"/>
  <unicode hex="0402"/>
  <guideline x="568" y="625" angle="90.0" identifier="YDADns81zF"/>
  <outline>
    <contour>
      <point x="124" y="0" type="line"/>
      <point x="124" y="1378" type="line"/>
      <point x="316" y="1378" type="line"/>
      <point x="316" y="0" type="line"/>
    </contour>
    <contour>
      <point x="326" y="0" type="line"/>
      <point x="326" y="182" type="line"/>
      <point x="334" y="182" type="line" smooth="yes"/>
      <point x="344" y="182"/>
      <point x="346" y="305"/>
      <point x="346" y="407" type="qcurve" smooth="yes"/>
      <point x="346" y="423" type="line" smooth="yes"/>
      <point x="346" y="551"/>
      <point x="341" y="692"/>
      <point x="331" y="692" type="qcurve" smooth="yes"/>
      <point x="327" y="692"/>
      <point x="253" y="671"/>
      <point x="220" y="649" type="qcurve"/>
      <point x="220" y="807" type="line"/>
      <point x="252" y="829"/>
      <point x="332" y="850"/>
      <point x="344" y="850" type="qcurve" smooth="yes"/>
      <point x="438" y="850"/>
      <point x="538" y="624"/>
      <point x="538" y="432" type="qcurve" smooth="yes"/>
      <point x="538" y="409" type="line" smooth="yes"/>
      <point x="538" y="235"/>
      <point x="446" y="0"/>
      <point x="334" y="0" type="qcurve" smooth="yes"/>
    </contour>
    <contour>
      <point x="24" y="1298" type="line"/>
      <point x="24" y="1456" type="line"/>
      <point x="416" y="1456" type="line"/>
      <point x="416" y="1298" type="line"/>
    </contour>
  </outline>
</glyph>
<glyph name="Nje" format="2">
  <advance width="856"/>
  <unicode hex="040A"/>
  <outline>
    <contour>
      <point x="170" y="0" type="line"/>
      <point x="362" y="0" type="line"/>
      <point x="362" y="1456" type="line"/>
      <point x="170" y="1456" type="line"/>
    </contour>
    <contour>
      <point x="392" y="0" type="line"/>
      <point x="599" y="0" type="line" smooth="yes"/>
      <point x="699" y="0"/>
      <point x="806" y="241"/>
      <point x="806" y="437" type="qcurve" smooth="yes"/>
      <point x="806" y="633"/>
      <point x="699" y="870"/>
      <point x="599" y="870" type="qcurve" smooth="yes"/>
      <point x="513" y="870" type="line"/>
      <point x="513" y="712" type="line"/>
      <point x="599" y="712" type="line" smooth="yes"/>
      <point x="609" y="712"/>
      <point x="614" y="554"/>
      <point x="614" y="437" type="qcurve" smooth="yes"/>
      <point x="614" y="320"/>
      <point x="609" y="158"/>
      <point x="599" y="158" type="qcurve" smooth="yes"/>
      <point x="584" y="158" type="line"/>
      <point x="584" y="1456" type="line"/>
      <point x="392" y="1456" type="line"/>
    </contour>
    <contour>
      <point x="272" y="712" type="line"/>
      <point x="481" y="712" type="line"/>
      <point x="481" y="870" type="line"/>
      <point x="272" y="870" type="line"/>
    </contour>
  </outline>
</glyph>
<glyph name="Tshe" format="2">
  <advance width="678"/>
  <unicode hex="040B"/>
  <guideline x="568" y="683" angle="90.0" identifier="juO2xYoEN4"/>
  <outline>
    <contour>
      <point x="124" y="0" type="line"/>
      <point x="124" y="1388" type="line"/>
      <point x="316" y="1388" type="line"/>
      <point x="316" y="0" type="line"/>
    </contour>
    <contour>
      <point x="346" y="0" type="line"/>
      <point x="346" y="394" type="line" smooth="yes"/>
      <point x="346" y="572"/>
      <point x="341" y="692"/>
      <point x="331" y="692" type="qcurve" smooth="yes"/>
      <point x="326" y="692"/>
      <point x="255" y="676"/>
      <point x="220" y="650" type="qcurve"/>
      <point x="220" y="813" type="line"/>
      <point x="252" y="831"/>
      <point x="326" y="850"/>
      <point x="362" y="850" type="qcurve" smooth="yes"/>
      <point x="474" y="850"/>
      <point x="538" y="628"/>
      <point x="538" y="391" type="qcurve" smooth="yes"/>
      <point x="538" y="0" type="line"/>
    </contour>
    <contour>
      <point x="24" y="1298" type="line"/>
      <point x="24" y="1456" type="line"/>
      <point x="416" y="1456" type="line"/>
      <point x="416" y="1298" type="line"/>
    </contour>
  </outline>
</glyph>
<glyph name="Ze" format="2">
  <advance width="597"/>
  <unicode hex="0417"/>
  <anchor x="291" y="0" name="bottom"/>
  <outline>
    <contour>
      <point x="291" y="134" type="qcurve" smooth="yes"/>
      <point x="301" y="134"/>
      <point x="306" y="289"/>
      <point x="306" y="420" type="qcurve" smooth="yes"/>
      <point x="306" y="540"/>
      <point x="301" y="680"/>
      <point x="291" y="680" type="qcurve" smooth="yes"/>
      <point x="222" y="680" type="line"/>
      <point x="222" y="836" type="line"/>
      <point x="291" y="836" type="line" smooth="yes"/>
      <point x="301" y="836"/>
      <point x="306" y="963"/>
      <point x="306" y="1075" type="qcurve" smooth="yes"/>
      <point x="306" y="1194"/>
      <point x="301" y="1322"/>
      <point x="291" y="1322" type="qcurve" smooth="yes"/>
      <point x="281" y="1322"/>
      <point x="276" y="1176"/>
      <point x="276" y="1022" type="qcurve" smooth="yes"/>
      <point x="276" y="1010" type="line"/>
      <point x="84" y="1010" type="line"/>
      <point x="84" y="1020" type="line" smooth="yes"/>
      <point x="84" y="1221"/>
      <point x="171" y="1486"/>
      <point x="291" y="1486" type="qcurve" smooth="yes"/>
      <point x="377" y="1486"/>
      <point x="497" y="1287"/>
      <point x="497" y="1075" type="qcurve" smooth="yes"/>
      <point x="497" y="953"/>
      <point x="471" y="772"/>
      <point x="455" y="768" type="qcurve"/>
      <point x="455" y="764" type="line"/>
      <point x="476" y="763"/>
      <point x="496" y="560"/>
      <point x="496" y="420" type="qcurve" smooth="yes"/>
      <point x="496" y="206"/>
      <point x="372" y="-30"/>
      <point x="291" y="-30" type="qcurve" smooth="yes"/>
      <point x="208" y="-30"/>
      <point x="84" y="204"/>
      <point x="84" y="456" type="qcurve" smooth="yes"/>
      <point x="84" y="466" type="line"/>
      <point x="276" y="466" type="line"/>
      <point x="276" y="456" type="line" smooth="yes"/>
      <point x="276" y="287"/>
      <point x="281" y="134"/>
    </contour>
  </outline>
</glyph>
<glyph name="Ka" format="2">
  <advance width="628"/>
  <unicode hex="041A"/>
  <guideline x="480" y="796" angle="90.0" identifier="LxfLwWU0sJ"/>
  <anchor x="410" y="1456" name="top"/>
  <anchor x="510" y="0" name="cy_descender"/>
  <outline>
    <contour>
      <point x="471" y="0" type="line"/>
      <point x="384" y="693" type="line"/>
      <point x="512" y="823" type="line"/>
      <point x="686" y="0" type="line"/>
    </contour>
    <contour>
      <point x="266" y="830" type="line"/>
      <point x="372" y="830" type="line"/>
      <point x="459" y="1456" type="line"/>
      <point x="655" y="1456" type="line"/>
      <point x="487" y="672" type="line"/>
      <point x="266" y="672" type="line"/>
    </contour>
    <contour>
      <point x="170" y="0" type="line"/>
      <point x="170" y="1456" type="line"/>
      <point x="362" y="1456" type="line"/>
      <point x="362" y="0" type="line"/>
    </contour>
  </outline>
</glyph>
<glyph name="Che" format="2">
  <advance width="724"/>
  <unicode hex="0427"/>
  <guideline x="1123" y="741" angle="90.0" identifier="nfCxFSb4p1"/>
  <anchor x="459" y="0" name="cy_descender"/>
  <outline>
    <contour>
      <point x="332" y="1032" type="line" smooth="yes"/>
      <point x="332" y="854"/>
      <point x="337" y="734"/>
      <point x="360" y="734" type="qcurve" smooth="yes"/>
      <point x="375" y="734"/>
      <point x="431" y="754"/>
      <point x="458" y="775" type="qcurve"/>
      <point x="458" y="617" type="line"/>
      <point x="428" y="595"/>
      <point x="370" y="576"/>
      <point x="345" y="576" type="qcurve" smooth="yes"/>
      <point x="199" y="576"/>
      <point x="140" y="807"/>
      <point x="140" y="1035" type="qcurve" smooth="yes"/>
      <point x="140" y="1456" type="line"/>
      <point x="332" y="1456" type="line"/>
    </contour>
    <contour>
      <point x="554" y="1456" type="line"/>
      <point x="554" y="0" type="line"/>
      <point x="362" y="0" type="line"/>
      <point x="362" y="1456" type="line"/>
    </contour>
  </outline>
</glyph>
<glyph name="Ya" format="2">
  <advance width="620"/>
  <unicode hex="042F"/>
  <anchor x="285" y="1456" name="top"/>
  <outline>
    <contour>
      <point x="13" y="0" type="line"/>
      <point x="65" y="672" type="line"/>
      <point x="267" y="672" type="line"/>
      <point x="221" y="0" type="line"/>
    </contour>
    <contour>
      <point x="258" y="0" type="line"/>
      <point x="258" y="1300" type="line"/>
      <point x="243" y="1300" type="line" smooth="yes"/>
      <point x="233" y="1300"/>
      <point x="228" y="1144"/>
      <point x="228" y="1028" type="qcurve" smooth="yes"/>
      <point x="228" y="912"/>
      <point x="233" y="750"/>
      <point x="243" y="750" type="qcurve" smooth="yes"/>
      <point x="348" y="750" type="line"/>
      <point x="348" y="594" type="line"/>
      <point x="181" y="594" type="line"/>
      <point x="136" y="604" type="line"/>
      <point x="102" y="630"/>
      <point x="36" y="858"/>
      <point x="36" y="1028" type="qcurve" smooth="yes"/>
      <point x="36" y="1222"/>
      <point x="157" y="1456"/>
      <point x="243" y="1456" type="qcurve" smooth="yes"/>
      <point x="450" y="1456" type="line"/>
      <point x="450" y="0" type="line"/>
    </contour>
  </outline>
</glyph>
<glyph name="Shha" format="2">
  <advance width="723"/>
  <unicode hex="04BA"/>
  <outline>
    <contour>
      <point x="392" y="424" type="line" smooth="yes"/>
      <point x="392" y="602"/>
      <point x="387" y="722"/>
      <point x="364" y="722" type="qcurve" smooth="yes"/>
      <point x="349" y="722"/>
      <point x="293" y="702"/>
      <point x="266" y="681" type="qcurve"/>
      <point x="266" y="839" type="line"/>
      <point x="296" y="861"/>
      <point x="354" y="880"/>
      <point x="379" y="880" type="qcurve" smooth="yes"/>
      <point x="525" y="880"/>
      <point x="584" y="649"/>
      <point x="584" y="421" type="qcurve" smooth="yes"/>
      <point x="584" y="0" type="line"/>
      <point x="392" y="0" type="line"/>
    </contour>
    <contour>
      <point x="170" y="0" type="line"/>
      <point x="170" y="1456" type="line"/>
      <point x="362" y="1456" type="line"/>
      <point x="362" y="0" type="line"/>
    </contour>
  </outline>
</glyph>
<glyph name="Hacyr-stroke" format="2">
  <advance width="557"/>
  <outline>
    <contour>
      <point x="100" y="824" type="line"/>
      <point x="457" y="824" type="line"/>
      <point x="457" y="658" type="line"/>
      <point x="100" y="658" type="line"/>
    </contour>
  </outline>
</glyph>
<glyph name="Zhe.bgr" format="2">
  <advance width="835"/>
  <outline>
    <contour>
      <point x="-20" y="0" type="line"/>
      <point x="260" y="990" type="line"/>
      <point x="380" y="856" type="line"/>
      <point x="210" y="0" type="line"/>
    </contour>
    <contour>
      <point x="319" y="0" type="line"/>
      <point x="319" y="1456" type="line"/>
      <point x="511" y="1456" type="line"/>
      <point x="511" y="0" type="line"/>
    </contour>
    <contour>
      <point x="620" y="0" type="line"/>
      <point x="451" y="856" type="line"/>
      <point x="571" y="990" type="line"/>
      <point x="850" y="0" type="line"/>
    </contour>
    <contour>
      <point x="31" y="1456" type="line"/>
      <point x="262" y="1456" type="line"/>
      <point x="404" y="636" type="line"/>
      <point x="404" y="399" type="line"/>
    </contour>
    <contour>
      <point x="568" y="1456" type="line"/>
      <point x="799" y="1456" type="line"/>
      <point x="422" y="399" type="line"/>
      <point x="422" y="636" type="line"/>
    </contour>
  </outline>
</glyph>
<glyph name="dieresiscomb-stack.case" format="2">
  <anchor x="0.0" y="1456" name="_top"/>
  <anchor x="0.0" y="1831" name="top"/>
  <outline>
    <contour>
      <point x="-239" y="1717" type="qcurve" smooth="yes"/>
      <point x="-239" y="1772"/>
      <point x="-179" y="1831"/>
      <point x="-123" y="1831" type="qcurve" smooth="yes"/>
      <point x="-70" y="1831"/>
      <point x="-7" y="1768"/>
      <point x="-7" y="1717" type="qcurve" smooth="yes"/>
      <point x="-7" y="1663"/>
      <point x="-66" y="1604"/>
      <point x="-123" y="1604" type="qcurve" smooth="yes"/>
      <point x="-176" y="1604"/>
      <point x="-239" y="1666"/>
    </contour>
    <contour>
      <point x="6" y="1717" type="qcurve" smooth="yes"/>
      <point x="6" y="1772"/>
      <point x="66" y="1831"/>
      <point x="122" y="1831" type="qcurve" smooth="yes"/>
      <point x="175" y="1831"/>
      <point x="238" y="1768"/>
      <point x="238" y="1717" type="qcurve" smooth="yes"/>
      <point x="238" y="1663"/>
      <point x="179" y="1604"/>
      <point x="122" y="1604" type="qcurve" smooth="yes"/>
      <point x="69" y="1604"/>
      <point x="6" y="1666"/>
    </contour>
  </outline>
</glyph>
<glyph name="macronbelowcomb.case" format="2">
  <anchor x="0" y="0" name="_bottom"/>
  <anchor x="0" y="-294" name="bottom"/>
  <outline>
    <contour>
      <point x="-158" y="-294" type="line"/>
      <point x="-158" y="-138" type="line"/>
      <point x="158" y="-138" type="line"/>
      <point x="158" y="-294" type="line"/>
    </contour>
  </outline>
</glyph>
<glyph name="ogonekcomb.case" format="2">
  <anchor x="50" y="0" name="_ogonek"/>
  <anchor x="-1" y="-497" name="bottom"/>
  <outline>
    <contour>
      <point x="-152" y="-306" type="qcurve" smooth="yes"/>
      <point x="-152" y="-217"/>
      <point x="-89" y="-41"/>
      <point x="-45" y="51" type="qcurve"/>
      <point x="50" y="0" type="line"/>
      <point x="29" y="-105"/>
      <point x="20" y="-199"/>
      <point x="20" y="-244" type="qcurve" smooth="yes"/>
      <point x="20" y="-292"/>
      <point x="32" y="-347"/>
      <point x="50" y="-347" type="qcurve" smooth="yes"/>
      <point x="72" y="-347"/>
      <point x="102" y="-301"/>
      <point x="113" y="-254" type="qcurve"/>
      <point x="170" y="-357" type="line"/>
      <point x="165" y="-418"/>
      <point x="91" y="-497"/>
      <point x="21" y="-497" type="qcurve" smooth="yes"/>
      <point x="-67" y="-497"/>
      <point x="-152" y="-384"/>
    </contour>
  </outline>
</glyph>
<glyph name="ringcomb-stack.case" format="2">
  <anchor x="0.0" y="1456" name="_top"/>
  <anchor x="0.0" y="1840" name="top"/>
  <outline>
    <contour>
      <point x="-158" y="1727" type="qcurve" smooth="yes"/>
      <point x="-158" y="1794"/>
      <point x="-68" y="1883"/>
      <point x="0" y="1883" type="qcurve" smooth="yes"/>
      <point x="68" y="1883"/>
      <point x="158" y="1794"/>
      <point x="158" y="1727" type="qcurve" smooth="yes"/>
      <point x="158" y="1659"/>
      <point x="68" y="1570"/>
      <point x="0" y="1570" type="qcurve"/>
      <point x="-68" y="1570"/>
      <point x="-158" y="1659"/>
    </contour>
    <contour>
      <point x="-33" y="1726" type="qcurve" smooth="yes"/>
      <point x="-33" y="1709"/>
      <point x="-14" y="1692"/>
      <point x="0" y="1692" type="qcurve" smooth="yes"/>
      <point x="16" y="1692"/>
      <point x="33" y="1709"/>
      <point x="33" y="1726" type="qcurve" smooth="yes"/>
      <point x="33" y="1741"/>
      <point x="14" y="1761"/>
      <point x="0" y="1761" type="qcurve" smooth="yes"/>
      <point x="-16" y="1761"/>
      <point x="-33" y="1741"/>
    </contour>
  </outline>
</glyph>
<glyph name="ringcomb.case" format="2">
  <anchor x="0" y="1456" name="_top"/>
  <anchor x="0" y="2058" name="top"/>
  <outline>
    <contour>
      <point x="-176" y="1774" type="qcurve" smooth="yes"/>
      <point x="-176" y="1849"/>
      <point x="-76" y="1947"/>
      <point x="0" y="1947" type="qcurve" smooth="yes"/>
      <point x="76" y="1947"/>
      <point x="176" y="1849"/>
      <point x="176" y="1774" type="qcurve" smooth="yes"/>
      <point x="176" y="1698"/>
      <point x="76" y="1600"/>
      <point x="0" y="1600" type="qcurve"/>
      <point x="-76" y="1600"/>
      <point x="-176" y="1698"/>
    </contour>
    <contour>
      <point x="-33" y="1773" type="qcurve" smooth="yes"/>
      <point x="-33" y="1756"/>
      <point x="-14" y="1739"/>
      <point x="0" y="1739" type="qcurve" smooth="yes"/>
      <point x="16" y="1739"/>
      <point x="33" y="1756"/>
      <point x="33" y="1773" type="qcurve" smooth="yes"/>
      <point x="33" y="1788"/>
      <point x="14" y="1808"/>
      <point x="0" y="1808" type="qcurve" smooth="yes"/>
      <point x="-16" y="1808"/>
      <point x="-33" y="1788"/>
    </contour>
  </outline>
</glyph>
<glyph name="tildecomb.case" format="2">
  <anchor x="1" y="1456" name="_top"/>
  <anchor x="1" y="1892" name="top"/>
  <outline>
    <contour>
      <point x="-180" y="1706" type="line"/>
      <point x="-169" y="1769"/>
      <point x="-96" y="1867"/>
      <point x="-46" y="1867" type="qcurve" smooth="yes"/>
      <point x="-30" y="1867"/>
      <point x="9" y="1844"/>
      <point x="26" y="1818" type="qcurve" smooth="yes"/>
      <point x="42" y="1794"/>
      <point x="71" y="1752"/>
      <point x="77" y="1752" type="qcurve" smooth="yes"/>
      <point x="85" y="1752"/>
      <point x="97" y="1805"/>
      <point x="102" y="1841" type="qcurve"/>
      <point x="182" y="1743" type="line"/>
      <point x="169" y="1672"/>
      <point x="105" y="1600"/>
      <point x="72" y="1600" type="qcurve" smooth="yes"/>
      <point x="48" y="1600"/>
      <point x="-11" y="1638"/>
      <point x="-25" y="1660" type="qcurve" smooth="yes"/>
      <point x="-39" y="1682"/>
      <point x="-61" y="1713"/>
      <point x="-67" y="1713" type="qcurve" smooth="yes"/>
      <point x="-75" y="1713"/>
      <point x="-95" y="1649"/>
      <point x="-104" y="1614" type="qcurve"/>
    </contour>
  </outline>
</glyph>
